Coordinates
version=1
nRows=15
nColumns=34
inDegrees=yes

Units are S.I. units (second, meters, Newtons, ...)
If the header above contains a line with 'inDegrees', this indicates whether rotational values are in degrees (yes) or radians (no).

endheader
time	pelvis_tilt	pelvis_list	pelvis_rotation	pelvis_tx	pelvis_ty	pelvis_tz	hip_flexion_r	hip_adduction_r	hip_rotation_r	knee_angle_r	ankle_angle_r	subtalar_angle_r	mtp_angle_r	hip_flexion_l	hip_adduction_l	hip_rotation_l	knee_angle_l	ankle_angle_l	subtalar_angle_l	mtp_angle_l	lumbar_extension	lumbar_bending	lumbar_rotation	arm_flex_r	arm_add_r	arm_rot_r	elbow_flex_r	pro_sup_r	arm_flex_l	arm_add_l	arm_rot_l	elbow_flex_l	pro_sup_l
      0.00000000	      0.66654661	      5.66634239	    -28.69176703	      0.25116770	      0.98749464	     -0.21823948	     10.95355853	    -11.31554347	     -3.21381618	     10.28753037	     -0.33888668	    -11.89124763	      0.00000000	     14.45783519	     -3.29423703	    -12.90411398	     16.59728769	      7.42872370	     -6.45877621	      0.00000000	    -15.67155551	     -9.31277884	      5.73202615	     -1.92610748	    -26.05405945	     17.50645280	     90.14509293	    119.02884247	      0.44950060	    -20.55063713	      5.71998431	    104.33540818	    119.74817918
      0.01666670	      0.66139449	      5.69173338	    -28.69050741	      0.25126828	      0.98743998	     -0.21776398	     10.95038307	    -11.30717557	     -3.21540460	     10.28831383	     -0.33847809	    -11.88974833	      0.00000000	     14.45420314	     -3.30215789	    -12.90430066	     16.59435948	      7.42856950	     -6.45867409	      0.00000000	    -15.67834679	     -9.31029980	      5.73160740	     -1.92614223	    -26.05746466	     17.50404298	     90.14530595	    119.02920917	      0.45108946	    -20.54775466	      5.72134306	    104.33388149	    119.74817918
      0.03333330	      0.65428437	      5.72839953	    -28.63129611	      0.25048529	      0.98740226	     -0.21603411	     10.94869022	    -11.22103960	     -3.22820886	     10.29460579	     -0.32903788	    -11.87626207	      0.00000000	     14.43659578	     -3.38003334	    -12.90280444	     16.52714099	      7.41357018	     -6.44574261	      0.00000000	    -15.68486382	     -9.39018742	      5.72862083	     -1.93435261	    -26.10153566	     17.48057940	     90.14550095	    119.03234694	      0.45229619	    -20.50349087	      5.72567557	    104.30569203	    119.74817918
      0.05000000	      0.57875950	      5.49316973	    -28.53343866	      0.24972615	      0.98777571	     -0.21351813	     10.84602540	    -10.80968740	     -3.55046911	     10.35794761	     -0.13558083	    -11.73444268	      0.00000000	     14.06219587	     -3.72881276	    -12.76303922	     15.90348274	      7.05576886	     -6.06870674	      0.00000000	    -15.69154960	     -9.05334261	      5.93693450	     -2.09226126	    -26.14461710	     17.30615877	     90.10607268	    119.09648721	      0.62367139	    -20.18453664	      5.64947489	    103.81411880	    119.74817918
      0.06666670	      0.60285808	      5.57525412	    -28.42562258	      0.24859489	      0.98782339	     -0.21100675	     10.82213491	    -10.73229317	     -3.56467908	     10.37686841	     -0.12045772	    -11.72781449	      0.00000000	     14.05065475	     -3.79775496	    -12.76162327	     15.84784193	      7.05389503	     -6.06576056	      0.00000000	    -15.69589422	     -9.08684455	      5.97364099	     -2.06801717	    -26.19030760	     17.28093650	     90.10275636	    119.09781624	      0.62527575	    -20.15983954	      5.64869585	    103.79967346	    119.74817918
      0.08333330	      0.53254547	      5.23584562	    -28.14622572	      0.24780134	      0.98834353	     -0.20759733	     10.57942699	    -10.18110322	     -4.06147714	     10.46083618	      0.27040109	    -11.70734454	      0.00000000	     13.56337176	     -4.25505562	    -12.48669028	     15.10190613	      6.67653264	     -5.65059243	      0.00000000	    -15.72118737	     -8.60603134	      6.02769747	     -2.18846318	    -26.23118734	     17.15214574	     89.90343084	    119.14605435	      0.77282738	    -19.87597835	      5.68168698	    103.28462748	    119.74817918
      0.10000000	      0.80004654	      4.67444630	    -27.30519665	      0.24787720	      0.98979808	     -0.20459292	      9.21899387	     -9.69265553	     -5.67403697	      9.62894417	      0.44602717	    -10.57417311	      0.00000000	     12.79944712	     -4.65528743	    -11.83286845	     14.52585802	      6.63244813	     -5.16797002	      0.00000000	    -16.21870402	     -7.89995383	      5.70668172	     -2.41275828	    -26.20601528	     16.66563545	     89.62502236	    119.33979393	      1.19753726	    -19.59253908	      6.07017860	    102.59551425	    119.74817918
      0.11666670	      0.69092247	      4.63523999	    -27.09202410	      0.24729618	      0.98982822	     -0.20048673	      9.21432413	     -9.35677400	     -5.84496674	      9.77157151	      0.75344451	    -10.66659099	      0.00000000	     12.56716039	     -4.93523797	    -11.75948130	     13.98692578	      6.33871824	     -4.95401245	      0.00000000	    -15.99255628	     -7.66920942	      5.71086244	     -2.60140809	    -26.27595717	     16.69131546	     89.55964555	    119.36290126	      0.97077295	    -19.40697148	      6.14880888	    102.52500262	    119.74601114
      0.13333330	      0.56250925	      4.57266499	    -26.88468056	      0.24643200	      0.98993030	     -0.19622466	      9.18898422	     -8.97818759	     -6.08771339	      9.82240004	      1.03453006	    -10.70876050	      0.00000000	     12.32113375	     -5.23820315	    -11.64274053	     13.36796746	      6.00485675	     -4.67007585	      0.00000000	    -15.77369916	     -7.36518592	      5.68097412	     -2.68894927	    -26.28905682	     16.58582732	     89.48825478	    119.37936823	      0.78810174	    -19.17113464	      6.16268569	    102.33888025	    119.74066576
      0.15000000	      0.46227368	      4.51130957	    -26.65009472	      0.24568250	      0.98996783	     -0.19193878	      9.12607822	     -8.61246239	     -6.29944908	      9.88377530	      1.27631353	    -10.69823418	      0.00000000	     12.08280406	     -5.54646858	    -11.49647126	     12.82602803	      5.69522714	     -4.37384464	      0.00000000	    -15.59325506	     -7.04555045	      5.63808686	     -2.81211713	    -26.27526121	     16.44739850	     89.50392884	    119.39473037	      0.60625432	    -18.89851526	      6.18496200	    102.24467532	    119.73927973
      0.16666670	      0.35779866	      4.42440503	    -26.43015283	      0.24478032	      0.98999797	     -0.18751263	      9.06675664	     -8.21347947	     -6.60059006	      9.93686176	      1.57500649	    -10.73841806	      0.00000000	     11.83634954	     -5.88297437	    -11.35547981	     12.27736947	      5.40803885	     -4.07825095	      0.00000000	    -15.45256660	     -6.67977221	      5.61665309	     -2.91950149	    -26.33836274	     16.20252137	     89.58301268	    119.40664727	      0.38841281	    -18.63979369	      6.18822404	    102.19146569	    119.73984529
      0.18333330	      0.28158396	      4.32002914	    -26.19136144	      0.24401437	      0.98998080	     -0.18300496	      8.99414233	     -7.81537050	     -6.85032887	     10.07119964	      1.84029909	    -10.75037938	      0.00000000	     11.60028611	     -6.23650319	    -11.21179095	     11.81702180	      5.15248061	     -3.79905810	      0.00000000	    -15.35035957	     -6.31032871	      5.60478680	     -3.11526605	    -26.31516194	     15.99254683	     89.66613426	    119.41910398	      0.13801459	    -18.28775792	      6.21226585	    102.15948514	    119.74276841
      0.20000000	      0.25661971	      3.87793100	    -25.66079851	      0.24336938	      0.99035831	     -0.17877404	      8.38855669	     -7.15016857	     -7.99390815	      9.73182347	      2.12879942	     -9.93433075	      0.00000000	     11.31158624	     -6.88265171	    -10.65055174	     11.57028490	      5.23965786	     -3.20696225	      0.00000000	    -15.53698450	     -5.54325722	      5.51773138	     -3.66318469	    -26.17286367	     14.93209744	     90.10920975	    119.51469991	      0.07220459	    -17.82083620	      5.89475483	    101.84759989	    119.74365341
      0.21666670	      0.17134002	      3.80538015	    -25.42292574	      0.24238005	      0.99026530	     -0.17457218	      8.39628761	     -6.79155225	     -8.18705231	      9.91174189	      2.55667429	     -9.97793900	      0.00000000	     11.17909868	     -7.21683492	    -10.65098155	     11.18278365	      4.95260728	     -2.99011950	      0.00000000	    -15.47580962	     -5.17202850	      5.49293798	     -3.72017104	    -26.32259625	     14.78944106	     90.03944076	    119.54580208	     -0.07710965	    -17.57033509	      6.13619238	    101.82713272	    119.74378007
      0.23333330	      0.09071785	      3.68964391	    -25.25558754	      0.24102719	      0.99029753	     -0.17021740	      8.42457221	     -6.37141901	     -8.41542422	     10.11454076	      2.89062652	     -9.96563095	      0.00000000	     11.03172998	     -7.62904582	    -10.56001037	     10.83231624	      4.65112340	     -2.70362118	      0.00000000	    -15.45620379	     -4.80085360	      5.53667617	     -3.68726833	    -26.32307441	     14.54674884	     89.99855815	    119.56800662	     -0.18816607	    -17.24488574	      6.21494078	    101.72614858	    119.74017916
